<?xml version="1.0" encoding="UTF-8" standalone="no"?>
<svg
   xmlns:dc="http://purl.org/dc/elements/1.1/"
   xmlns:cc="http://creativecommons.org/ns#"
   xmlns:rdf="http://www.w3.org/1999/02/22-rdf-syntax-ns#"
   xmlns:svg="http://www.w3.org/2000/svg"
   xmlns="http://www.w3.org/2000/svg"
   xmlns:sodipodi="http://sodipodi.sourceforge.net/DTD/sodipodi-0.dtd"
   xmlns:inkscape="http://www.inkscape.org/namespaces/inkscape"
   viewBox="0 0 461.59264 187.27386"
   height="187.27386"
   width="461.59265"
   xml:space="preserve"
   id="svg2"
   version="1.1"
   sodipodi:docname="logo_sunne.svg"
   inkscape:version="0.92.4 (5da689c313, 2019-01-14)"><sodipodi:namedview
     pagecolor="#ffffff"
     bordercolor="#666666"
     borderopacity="1"
     objecttolerance="10"
     gridtolerance="10"
     guidetolerance="10"
     inkscape:pageopacity="0"
     inkscape:pageshadow="2"
     inkscape:window-width="1366"
     inkscape:window-height="715"
     id="namedview1001"
     showgrid="false"
     fit-margin-top="0"
     fit-margin-left="0"
     fit-margin-right="0"
     fit-margin-bottom="0"
     inkscape:zoom="0.35355339"
     inkscape:cx="479.44085"
     inkscape:cy="190.44561"
     inkscape:window-x="-8"
     inkscape:window-y="-8"
     inkscape:window-maximized="1"
     inkscape:current-layer="g100" /><metadata
     id="metadata8"><rdf:RDF><cc:Work
         rdf:about=""><dc:format>image/svg+xml</dc:format><dc:type
           rdf:resource="http://purl.org/dc/dcmitype/StillImage" /><dc:title></dc:title></cc:Work></rdf:RDF></metadata><defs
     id="defs6"><clipPath
       id="clipPath18"
       clipPathUnits="userSpaceOnUse"><path
         id="path16"
         d="M 0,0 H 841.89 V 595.275 H 0 Z"
         inkscape:connector-curvature="0" /></clipPath><clipPath
       id="clipPath32"
       clipPathUnits="userSpaceOnUse"><path
         id="path30"
         d="M 0,595.276 H 841.89 V 0 H 0 Z"
         inkscape:connector-curvature="0" /></clipPath><clipPath
       id="clipPath60"
       clipPathUnits="userSpaceOnUse"><path
         id="path58"
         d="m 247.848,297.549 c 0,-38.772 31.431,-70.205 70.204,-70.205 v 0 c 38.773,0 70.204,31.433 70.204,70.205 v 0 c 0,15.792 -5.215,30.367 -14.016,42.095 v 0 l -15.277,-27.071 c 1.72,-4.684 2.661,-9.745 2.661,-15.024 v 0 c 0,-24.063 -19.508,-43.571 -43.572,-43.571 v 0 c -24.063,0 -43.571,19.508 -43.571,43.571 v 0 c 0,24.063 19.508,43.571 43.571,43.571 v 0 c 7.799,0 15.114,-2.059 21.447,-5.649 v 0 l 12.92,23.304 c -10.159,5.714 -21.881,8.978 -34.367,8.978 v 0 c -38.773,0 -70.204,-31.431 -70.204,-70.204"
         inkscape:connector-curvature="0" /></clipPath><linearGradient
       id="linearGradient72"
       spreadMethod="pad"
       gradientTransform="matrix(58.770241,62.420563,62.420563,-58.770241,277.74771,254.57265)"
       gradientUnits="userSpaceOnUse"
       y2="0"
       x2="1"
       y1="0"
       x1="0"><stop
         id="stop66"
         offset="0"
         style="stop-opacity:1;stop-color:#fde536" /><stop
         id="stop68"
         offset="0.22"
         style="stop-opacity:1;stop-color:#ffad21" /><stop
         id="stop70"
         offset="1"
         style="stop-opacity:1;stop-color:#fe3a4f" /></linearGradient><clipPath
       id="clipPath82"
       clipPathUnits="userSpaceOnUse"><path
         id="path80"
         d="m 360.362,367.753 c -0.762,-0.287 -1.413,-0.837 -1.821,-1.572 v 0 l -28.77,-51.892 c -1.897,-3.423 -6.233,-4.622 -9.619,-2.662 v 0 l -5.143,2.976 c -7.345,4.251 -16.745,1.756 -21.013,-5.579 v 0 l -14.999,-26.379 c 0.012,-0.03 0.024,-0.059 0.035,-0.09 v 0 c 5.925,2.998 12.623,4.686 19.717,4.686 v 0 c 5.498,0 10.759,-1.014 15.606,-2.867 v 0 10e-4 c 0.585,-0.156 1.159,-0.388 1.709,-0.707 v 0 l 5.059,-2.923 c 7.46,-4.311 17.005,-1.66 21.173,5.882 v 0 l 44.311,78.52 c 0.55,0.976 0.133,2.129 -0.752,2.606 v 0 z m -46.007,-83.379 c 10e-4,0 10e-4,0 10e-4,0 v 0 z"
         inkscape:connector-curvature="0" /></clipPath><linearGradient
       id="linearGradient94"
       spreadMethod="pad"
       gradientTransform="matrix(78.282455,83.144714,83.144714,-78.282455,277.74771,254.57265)"
       gradientUnits="userSpaceOnUse"
       y2="0"
       x2="1"
       y1="0"
       x1="0"><stop
         id="stop88"
         offset="0"
         style="stop-opacity:1;stop-color:#fde536" /><stop
         id="stop90"
         offset="0.22"
         style="stop-opacity:1;stop-color:#ffad21" /><stop
         id="stop92"
         offset="1"
         style="stop-opacity:1;stop-color:#fe3a4f" /></linearGradient><clipPath
       id="clipPath104"
       clipPathUnits="userSpaceOnUse"><path
         id="path102"
         d="M 0,595.276 H 841.89 V 0 H 0 Z"
         inkscape:connector-curvature="0" /></clipPath></defs><g
     transform="matrix(1.3333333,0,0,-1.3333333,-157.92994,-69.691252)"
     id="g10"><g
       id="g26"
       transform="translate(-129.40054,-420.02144)"><g
         clip-path="url(#clipPath32)"
         id="g28"><g
           transform="translate(472.9512,316.9387)"
           id="g34"><path
             id="path36"
             style="fill:#1d0947;fill-opacity:1;fill-rule:nonzero;stroke:none"
             d="m 0,0 h -6.39 c -0.563,0 -1.02,-0.457 -1.02,-1.021 v -26.657 c 0,-5.209 -3.285,-8.32 -8.787,-8.32 -5.466,0 -8.729,3.089 -8.729,8.262 v 26.715 c 0,0.564 -0.457,1.021 -1.02,1.021 h -6.389 c -0.564,0 -1.021,-0.457 -1.021,-1.021 v -26.715 c 0,-9.599 6.919,-16.049 17.218,-16.049 10.263,0 17.159,6.45 17.159,16.049 V -1.021 C 1.021,-0.457 0.563,0 0,0"
             inkscape:connector-curvature="0" /></g><g
           transform="translate(515.9292,316.9387)"
           id="g38"><path
             id="path40"
             style="fill:#1d0947;fill-opacity:1;fill-rule:nonzero;stroke:none"
             d="m 0,0 h -6.608 c -0.563,0 -1.02,-0.457 -1.02,-1.021 v -24.192 -0.04 c 0.002,-1.037 -1.355,-1.427 -1.891,-0.54 -0.176,0.291 -0.352,0.57 -0.524,0.833 L -26.087,-0.461 C -26.275,-0.173 -26.596,0 -26.94,0 h -6.956 c -0.564,0 -1.021,-0.457 -1.021,-1.021 v -41.744 c 0,-0.563 0.457,-1.02 1.021,-1.02 h 6.658 c 0.566,0 1.023,0.456 1.021,1.021 -0.016,3.823 -0.075,17.431 -0.145,24.433 -0.011,1.046 1.367,1.421 1.9,0.521 0.225,-0.378 0.449,-0.741 0.67,-1.075 l 16.07,-24.44 c 0.188,-0.287 0.509,-0.46 0.852,-0.46 H 0 c 0.563,0 1.021,0.457 1.021,1.02 V -1.021 C 1.021,-0.457 0.563,0 0,0"
             inkscape:connector-curvature="0" /></g><g
           transform="translate(558.6313,316.9387)"
           id="g42"><path
             id="path44"
             style="fill:#1d0947;fill-opacity:1;fill-rule:nonzero;stroke:none"
             d="m 0,0 h -6.608 c -0.563,0 -1.02,-0.457 -1.02,-1.021 v -24.192 -0.04 c 0.002,-1.037 -1.355,-1.427 -1.891,-0.54 -0.176,0.291 -0.351,0.57 -0.524,0.833 L -26.087,-0.461 C -26.275,-0.173 -26.596,0 -26.94,0 h -6.956 c -0.564,0 -1.021,-0.457 -1.021,-1.021 v -41.744 c 0,-0.563 0.457,-1.02 1.021,-1.02 h 6.658 c 0.566,0 1.023,0.456 1.021,1.021 -0.016,3.823 -0.075,17.431 -0.145,24.433 -0.011,1.046 1.367,1.421 1.9,0.521 0.225,-0.378 0.449,-0.741 0.67,-1.075 l 16.07,-24.44 c 0.188,-0.287 0.509,-0.46 0.852,-0.46 H 0 c 0.563,0 1.021,0.457 1.021,1.02 V -1.021 C 1.021,-0.457 0.563,0 0,0"
             inkscape:connector-curvature="0" /></g><g
           transform="translate(593.0215,280.7761)"
           id="g46"><path
             id="path48"
             style="fill:#1d0947;fill-opacity:1;fill-rule:nonzero;stroke:none"
             d="m 0,0 h -16.796 c -0.563,0 -1.02,0.457 -1.02,1.02 v 8.569 c 0,0.564 0.457,1.021 1.02,1.021 h 12.389 c 0.563,0 1.02,0.456 1.02,1.02 v 5.582 c 0,0.563 -0.457,1.02 -1.02,1.02 h -12.389 c -0.563,0 -1.02,0.457 -1.02,1.02 v 8.269 c 0,0.563 0.457,1.02 1.02,1.02 h 15.83 c 0.564,0 1.021,0.457 1.021,1.02 v 5.581 c 0,0.564 -0.457,1.021 -1.021,1.021 h -24.539 c -0.563,0 -1.02,-0.457 -1.02,-1.021 V -6.602 c 0,-0.564 0.457,-1.021 1.02,-1.021 H 0 c 0.563,0 1.021,0.457 1.021,1.021 v 5.581 C 1.021,-0.457 0.563,0 0,0"
             inkscape:connector-curvature="0" /></g><g
           transform="translate(421.6807,298.6823)"
           id="g50"><path
             id="path52"
             style="fill:#1d0947;fill-opacity:1;fill-rule:nonzero;stroke:none"
             d="m 0,0 c -3.949,1.633 -7.36,3.043 -7.36,5.889 0,2.62 2.442,4.522 5.807,4.522 3.577,0 6.733,-1.892 8.267,-2.939 0.494,-0.336 1.166,-0.177 1.46,0.344 l 2.797,4.956 c 0.244,0.433 0.141,0.974 -0.242,1.291 -1.559,1.29 -5.784,4.193 -12.223,4.193 -8.183,0 -14.354,-5.367 -14.354,-12.484 0,-7.518 6.663,-10.389 12.016,-12.697 4.057,-1.748 7.561,-3.259 7.561,-6.178 0,-3.38 -3.003,-4.58 -5.574,-4.58 -4.133,0 -7.832,2.397 -9.477,3.644 -0.491,0.372 -1.195,0.221 -1.498,-0.316 l -2.83,-5.015 c -0.242,-0.429 -0.147,-0.968 0.232,-1.283 2.131,-1.776 6.802,-4.875 13.456,-4.875 9.702,0 14.121,6.531 14.121,12.6 C 12.159,-5.028 5.417,-2.24 0,0"
             inkscape:connector-curvature="0" /></g></g></g><g
       id="g54"
       transform="translate(-129.40054,-420.02144)"><g
         clip-path="url(#clipPath60)"
         id="g56"><g
           id="g62"><g
             id="g64"><path
               id="path74"
               style="fill:url(#linearGradient72);stroke:none"
               d="m 247.848,297.549 c 0,-38.772 31.431,-70.205 70.204,-70.205 v 0 c 38.773,0 70.204,31.433 70.204,70.205 v 0 c 0,15.792 -5.215,30.367 -14.016,42.095 v 0 l -15.277,-27.071 c 1.72,-4.684 2.661,-9.745 2.661,-15.024 v 0 c 0,-24.063 -19.508,-43.571 -43.572,-43.571 v 0 c -24.063,0 -43.571,19.508 -43.571,43.571 v 0 c 0,24.063 19.508,43.571 43.571,43.571 v 0 c 7.799,0 15.114,-2.059 21.447,-5.649 v 0 l 12.92,23.304 c -10.159,5.714 -21.881,8.978 -34.367,8.978 v 0 c -38.773,0 -70.204,-31.431 -70.204,-70.204"
               inkscape:connector-curvature="0" /></g></g></g></g><g
       id="g76"
       transform="translate(-129.40054,-420.02144)"><g
         clip-path="url(#clipPath82)"
         id="g78"><g
           id="g84"><g
             id="g86"><path
               id="path96"
               style="fill:url(#linearGradient94);stroke:none"
               d="m 360.362,367.753 c -0.762,-0.287 -1.413,-0.837 -1.821,-1.572 v 0 l -28.77,-51.892 c -1.897,-3.423 -6.233,-4.622 -9.619,-2.662 v 0 l -5.143,2.976 c -7.345,4.251 -16.745,1.756 -21.013,-5.579 v 0 l -14.999,-26.379 c 0.012,-0.03 0.024,-0.059 0.035,-0.09 v 0 c 5.925,2.998 12.623,4.686 19.717,4.686 v 0 c 5.498,0 10.759,-1.014 15.606,-2.867 v 0 10e-4 c 0.585,-0.156 1.159,-0.388 1.709,-0.707 v 0 l 5.059,-2.923 c 7.46,-4.311 17.005,-1.66 21.173,5.882 v 0 l 44.311,78.52 c 0.55,0.976 0.133,2.129 -0.752,2.606 v 0 z m -46.007,-83.379 c 10e-4,0 10e-4,0 10e-4,0 v 0 z"
               inkscape:connector-curvature="0" /></g></g></g></g><g
       id="g98"
       transform="translate(-129.40054,-420.02144)"><g
         clip-path="url(#clipPath104)"
         id="g100"><g
           transform="translate(261.8848,252.5476)"
           id="g106"><path
             id="path108"
             style="fill:#cc0d48;fill-opacity:1;fill-rule:nonzero;stroke:none"
             d="m 0,0 -13,-22.863 c -0.603,-1.061 0.163,-2.378 1.383,-2.378 l 23.809,-0.009 c 1.259,0 2.42,0.677 3.039,1.773 l 3.833,6.788 C 14.107,-13.698 9.478,-10.087 5.278,-5.887 3.399,-4.009 1.641,-2.042 0,0"
             inkscape:connector-curvature="0" /></g><g
           transform="translate(298.7485,287.2414)"
           id="g110"><path
             id="path112"
             style="fill:#fe3a4f;fill-opacity:1;fill-rule:nonzero;stroke:none"
             d="m 0,0 c -7.093,0 -13.792,-1.689 -19.716,-4.686 3.263,-8.464 9.2,-15.609 16.776,-20.389 L 7.727,-6.188 c 1.601,2.834 4.879,4.118 7.88,3.321 C 10.759,-1.015 5.498,0 0,0"
             inkscape:connector-curvature="0" /></g><g
           transform="translate(298.7485,287.2414)"
           id="g114"><path
             id="path116"
             style="fill:#cc0d48;fill-opacity:1;fill-rule:nonzero;stroke:none"
             d="m 0,0 c -1.33,0 -2.646,-0.059 -3.946,-0.175 -0.433,-0.039 -0.865,-0.084 -1.294,-0.136 -0.611,-0.072 -1.217,-0.159 -1.82,-0.256 -0.945,-0.154 -1.88,-0.338 -2.805,-0.551 -3.458,-0.798 -6.76,-2.005 -9.851,-3.568 0.165,-0.427 0.338,-0.849 0.516,-1.269 0.034,0.014 0.07,0.028 0.103,0.045 2.9,1.467 5.969,2.596 9.122,3.357 3.247,0.784 6.603,1.181 9.975,1.181 3.967,0 7.863,-0.544 11.625,-1.616 1.269,0.418 2.652,0.474 3.982,0.121 C 10.759,-1.015 5.498,0 0,0"
             inkscape:connector-curvature="0" /></g></g></g></g></svg>